<?xml version="1.0" encoding="UTF-8"?>
<svg id="_Ñëîé_1" data-name="Ñëîé_1" xmlns="http://www.w3.org/2000/svg" version="1.1" viewBox="0 0 2000 2000">
  <!-- Generator: Adobe Illustrator 29.2.1, SVG Export Plug-In . SVG Version: 2.1.0 Build 116)  -->
  <defs>
    <style>
      .st0 {
        fill: #f1a900;
      }
    </style>
  </defs>
  <g>
    <path class="st0" d="M1200.66,1301.46c-67.17,104.95-206.73,148.44-206.73,148.44,0,0-30.66-126.68,36.51-231.64,67.17-104.95,206.73-148.44,206.73-148.44,0,0,30.66,126.68-36.51,231.64Z"/>
    <path class="st0" d="M985.52,1256.69c-4.59-9.79-9.86-19.51-15.97-29.05-67.17-104.95-206.73-148.44-206.73-148.44,0,0-30.66,126.68,36.51,231.64,45.19,70.61,123.08,113.36,169.26,133.8-5.06-28.43-14.59-107.88,16.92-187.95Z"/>
    <path class="st0" d="M1010.09,1208.31c24.22-37.85,59.46-72.16,104.73-101.99,40.41-26.62,78.94-43.1,99.75-51.01,35.62-88.56,13.88-178.57,13.88-178.57,0,0-131.79,41.06-195.22,140.18-55.31,86.42-40.38,188.42-35.65,213.13,3.78-7.3,7.92-14.56,12.51-21.74Z"/>
    <path class="st0" d="M990.77,1053.29c-4.34-9.27-9.27-18.48-15.05-27.51-63.43-99.11-195.22-140.18-195.22-140.18,0,0-22.54,93.33,15.9,183.42,21.91,8.96,54.66,24.2,88.77,46.67,34.27,22.58,62.78,47.73,85.12,75.04-2.02-35.85.44-86.5,20.48-137.45Z"/>
    <path class="st0" d="M1010.45,1013.39c1.18-1.96,2.31-3.92,3.56-5.87,22.88-35.74,56.15-68.15,98.91-96.32,30.02-19.78,58.93-33.62,79.47-42.27,47-89.52,22.87-189.32,22.87-189.32,0,0-124.03,38.64-183.72,131.92-59.69,93.27-32.45,205.86-32.45,205.86,0,0,4.19-1.31,11.36-4Z"/>
    <path class="st0" d="M991.61,845.7c-4.08-8.7-8.76-17.34-14.19-25.82-59.69-93.27-183.72-131.92-183.72-131.92,0,0-24.24,100.3,23.24,190,20.52,8.66,49.26,22.45,79.1,42.11,30.77,20.27,56.55,42.77,77.16,67.1-3.1-33.8-2.85-87.46,18.41-141.47Z"/>
    <path class="st0" d="M995.51,811.03c1.43,2.23,2.71,4.49,4.03,6.73,1.71-.6,3.82-1.36,6.36-2.32,2.37-4.27,4.84-8.53,7.55-12.75,21.53-33.64,52.84-64.13,93.08-90.64,27.49-18.11,53.99-30.93,73.21-39.11,39.17-81.97,17.85-170.26,17.85-170.26,0,0-116.26,36.23-172.22,123.66-44.38,69.34-37.5,150.02-32.75,180.46.95,1.42,1.98,2.8,2.89,4.23Z"/>
    <path class="st0" d="M987.93,658.37c-3.82-8.15-8.21-16.26-13.3-24.21-55.96-87.43-172.22-123.66-172.22-123.66,0,0-20.66,85.51,16.02,166.36,19.24,7.59,50.9,21.73,83.99,43.53,26.38,17.38,48.84,36.5,67.3,57.07-1.56-31.49.92-75.17,18.2-119.09Z"/>
    <path class="st0" d="M991.59,625.87c2.22,3.47,4.29,6.98,6.28,10.49,3.18-6.15,6.67-12.26,10.53-18.31,16.89-26.39,40.29-50.68,69.56-72.48,3.87-15.02,6.23-30.81,6.23-47.13,0-98.3-84.19-177.99-84.19-177.99,0,0-84.19,79.69-84.19,177.99,0,19.98,3.51,39.16,9.05,57.09,27.94,21.25,50.39,44.81,66.73,70.34Z"/>
    <path class="st0" d="M1059.46,1555.35c-6.18,2.18-12.47,4.15-18.86,5.92-23.54-35.84-39.32-72.47-46.66-111.37,3.96-1.44,8.06-2.87,11.99-4.28,9.64,38.3,27.87,75.54,53.53,109.74Z"/>
  </g>
  <g>
    <path class="st0" d="M770.58,1302.34l-295.72,295.72-25.55,25.55-6.06-3.49-79.64-56.65,37.61-37.61,336.04-336.02c3.76,35.08,13.19,74.42,33.32,112.5Z"/>
    <path class="st0" d="M1223.68,849.23l412.71-412.71-72.91-72.91-325.45,325.45c4.49,28.17,10.55,93.62-14.35,160.18Z"/>
  </g>
  <g>
    <path class="st0" d="M1900,1000c0,230.03-86.13,447.65-242.92,615.01h-150.2c21.91-18.15,43-37.55,63.18-58.19,146.27-149.73,226.82-347.47,226.82-556.82,0-439.39-357.49-796.88-796.88-796.88S203.12,560.61,203.12,1000c0,195.61,69.98,380.4,198.1,525.86,11.43,13,23.35,25.7,35.71,38.04,12.81,12.81,29.39,27.01,37.93,34.17l-25.55,25.55c-1.94-1.29-3.97-2.45-6.06-3.49-9.7-4.88-20.94-7.33-33.62-7.33-20.18,0-36.94,6.59-49.93,19.59-80.68-81.65-144.22-176.38-188.82-281.74-47.02-111.08-70.87-229.06-70.87-350.64s23.81-239.35,70.75-350.33c45.35-107.2,110.22-203.43,192.86-286.07,82.64-82.64,178.87-147.51,286.07-192.86,110.98-46.93,228.85-70.75,350.33-70.75s239.35,23.81,350.33,70.75c107.18,45.35,203.43,110.22,286.07,192.86,82.64,82.64,147.51,178.87,192.86,286.07,46.93,110.98,70.75,228.85,70.75,350.33Z"/>
    <path class="st0" d="M1596.6,1672.06h2.01c1.56-1.39,3.1-2.82,4.66-4.22h-6.67v4.22Z"/>
    <path class="st0" d="M1420.84,1784.56h-65.04l-22.15-57.15h-2.84v57.15h-59.37v-34.81c-19.54,7.06-39.38,13.34-59.47,18.84v15.98h-60.43v-1.95c-49.39,9.44-100.07,14.27-151.54,14.27-47.67,0-94.69-4.17-140.67-12.32l-25.03-4.84c-8.31-1.75-16.59-3.64-24.82-5.65v10.49h-59.58v-27.53c-8.84-2.91-17.62-5.98-26.34-9.2-.78,2.7-1.69,5.16-2.73,7.4-4.52,9.66-12.61,17.52-24.06,23.36-10.68,5.44-24.11,8.2-39.93,8.2s-28.7-2.44-38.77-7.46c-8.56-4.25-15.44-10.12-20.6-17.44v22.68h-38.74c29.45,16.57,59.87,31.56,91.25,44.82,110.9,46.86,228.66,70.62,350.03,70.62s242.87-24.51,355.28-72.86c29.54-12.7,58.2-26.95,85.99-42.58h-20.43Z"/>
  </g>
  <path d="M466.57,1694.77v77.12h-15.43c-1.12-5.42-2.71-10.95-4.81-16.59-10.29,12.54-23.39,18.81-39.32,18.81-18.81,0-33.45-6.73-43.92-20.18-10.47-13.45-15.69-30.84-15.69-52.18,0-22.96,5.58-41.41,16.74-55.36,11.16-13.95,26.32-20.92,45.48-20.92,16.06,0,29.02,4.51,38.88,13.53,9.86,9.02,15.88,21.02,18.07,36.02l-32.12,4.22c-2.6-17.46-10.88-26.2-24.83-26.2-9.15,0-16.07,4.14-20.76,12.41-4.69,8.27-7.02,20.09-7.02,35.44s2.53,26.09,7.61,33.91c5.07,7.81,12.29,11.73,21.65,11.73,6.06,0,11.46-1.97,16.22-5.92,4.76-3.94,7.13-10.24,7.13-18.91h-27.15v-26.94h59.26Z"/>
  <path d="M527.42,1743.37h57.36v28.52h-91.59v-144.2h34.23v115.68Z"/>
  <path d="M714.29,1627.69v89.79c0,14.51-1.66,25.3-4.97,32.38-3.31,7.08-9.42,12.88-18.33,17.43-8.91,4.54-20.3,6.81-34.17,6.81s-24.91-2.04-33.12-6.13c-8.21-4.08-14.35-9.9-18.43-17.43-4.09-7.53-6.13-18.56-6.13-33.06v-89.79h36.66v89.79c0,7.75.65,13.45,1.95,17.11,1.3,3.67,3.91,6.57,7.82,8.72,3.91,2.15,8.71,3.22,14.42,3.22,6.34,0,11.5-1.06,15.48-3.17,3.98-2.12,6.62-4.92,7.92-8.4,1.3-3.49,1.95-9.32,1.95-17.48v-89.79h28.95Z"/>
  <path d="M832.5,1627.69v28.52h-35.71v115.68h-34.23v-115.68h-35.92v-28.52h105.85Z"/>
  <path d="M949.98,1655.15h-68.67v29.58h53.98v27.15h-53.98v31.49h68.67v28.52h-103v-144.2h103v27.46Z"/>
  <path d="M1081.18,1627.69v144.2h-28.82l-56.43-97.4c.07,2.46.14,4.09.21,4.86.28,2.46.42,4.54.42,6.23v86.31h-26.3v-144.2h36.41l49.05,85.04c-.42-4.23-.63-7.43-.63-9.61v-75.43h26.09Z"/>
  <path d="M1266.79,1656.21h-67.5v32.33h53.35v26.94h-53.35v56.41h-35.07v-144.2h102.57v28.52Z"/>
  <path d="M1318.14,1714.74v57.15h-34.02v-144.2h63.38c11.69,0,21.07,1.35,28.15,4.06,7.08,2.71,12.94,7.69,17.59,14.94,4.65,7.25,6.97,15.31,6.97,24.18,0,17.31-8.35,29.73-25.04,37.26l26.62,63.76h-37.32l-22.15-57.15h-24.2ZM1318.14,1653.36v36.76h20.71c6.76,0,11.67-.48,14.74-1.43s5.79-3.06,8.19-6.34c2.39-3.28,3.59-7.02,3.59-11.25s-1.2-7.61-3.59-10.77c-2.39-3.17-5-5.12-7.82-5.86-2.82-.74-8.1-1.11-15.85-1.11h-19.96Z"/>
  <path d="M1529.31,1655.15h-68.67v29.58h53.98v27.15h-53.98v31.49h68.67v28.52h-103v-144.2h103v27.46Z"/>
  <path d="M1652.59,1655.15h-68.67v29.58h53.98v27.15h-53.98v31.49h68.67v28.52h-103v-144.2h103v27.46Z"/>
</svg>