<?xml version="1.0" encoding="UTF-8"?>
<svg id="Camada_1" xmlns="http://www.w3.org/2000/svg" version="1.1" viewBox="0 0 2000 2000">
  <!-- Generator: Adobe Illustrator 29.2.1, SVG Export Plug-In . SVG Version: 2.1.0 Build 116)  -->
  <defs>
    <style>
      .st0 {
        fill: #60a5a3;
      }

      .st1 {
        fill: #a1d6d1;
        fill-rule: evenodd;
      }
    </style>
  </defs>
  <g>
    <g>
      <path class="st0" d="M902.09,338.11c32.59-.4,65.19-.12,97.79-.12s65.2.47,97.77-.37c6.87-.18,25.88.56,25.96-25.7.08-28.54,6.58-48.23-43.23-48.19-50.2.04-100.4-.04-150.59-.04-46.15,0-50.89,5.43-49.94,52.19.32,15.86,6.61,22.42,22.25,22.23Z"/>
      <path class="st0" d="M1196.71,827.82c.08-44.63.16-90.78.1-136.18-.02-13.67-.98-27.33-2.87-40.59-4.53-31.72-19.78-57.98-34.52-83.36-5.64-9.73-11.48-19.78-16.49-29.82-16.67-33.43-28.15-62.83-35.11-89.89-3.3-12.85-2.44-27.49-1.54-42.98.42-7.21.86-14.67.87-22.17,0-.17,0-.33,0-.5,0-6.5-5.26-11.77-11.76-11.77h-189.62c-3.2,0-6.25,1.29-8.47,3.59-2.21,2.3-3.41,5.4-3.29,8.6,1.36,38.05,1.19,81.87-18.22,120.26-12.96,25.64-27.64,51.11-40.38,72.97-22.23,38.12-32.92,76.54-32.67,117.43.85,141.47,1.48,280.15-.29,421.36-.32,25.73,6.74,46.08,20.99,60.51,14.29,14.47,35.46,22.12,61.21,22.12h.53c40.21-.16,79.57-.25,117.01-.25s76.12.09,112.31.25h.63c25.86,0,47.11-7.66,61.44-22.18,14.21-14.39,21.27-34.63,20.95-60.17-1.16-95.7-1-193.07-.83-287.23ZM1091.42,552.35h-183.4c23.25-44.05,35.54-87.09,37.32-130.73h108.89c1.56,44.5,13.79,87.54,37.19,130.73Z"/>
    </g>
    <path class="st1" d="M999.54,1361.09c-350.32-.42-631.86-283.09-630.08-632.6,1.78-349.71,282.07-628.87,630.99-628.49,350.29.39,631.93,283.16,630.09,632.6-1.84,349.7-282.18,628.91-631,628.49ZM1384.32,302.23c-205.21-196.58-570.66-211.53-798.47,25.55-253.93,264.25-177.28,631.64-12.83,785.74,270.03-270.03,539.99-539.99,811.29-811.29ZM1428.98,345.34c-271.9,271.9-542.62,542.63-813.32,813.33,183.16,177.6,535.66,229.23,789.57-16.65,230.67-223.37,223.49-581.1,23.75-796.69Z"/>
  </g>
  <g>
    <path class="st0" d="M509.34,1608.12h-120.66c-5.15,0-7.08-7.08-7.08-13.84v-171.17c0-15.12,37.33-31.21,37.33-16.09v168.27h90.41c12.55,0,12.55,32.82,0,32.82Z"/>
    <path class="st0" d="M679.22,1600.72c-4.83-16.09-9.65-31.21-14.48-46.33h-73.68c-4.83,15.12-9.66,30.24-14.48,46.33-3.86,13.19-47.3,13.19-42.79,0,24.13-73.04,69.49-174.71,89.76-196.27,2.25-1.93,6.44-1.93,8.69,0,20.27,21.56,65.64,123.23,89.77,196.27,4.82,13.19-38.93,12.87-42.79,0ZM653.8,1522.54c-7.4-20.59-15.77-41.19-25.74-62.74-10.29,21.56-18.66,42.15-26.06,62.74h51.81Z"/>
    <path class="st0" d="M828.83,1403.17c25.42,0,47.3,7.72,56.63,14.8,9.66,6.76,9.01,37.65-2.58,30.89-9.65-5.79-30.56-12.54-49.22-12.54-31.54,0-58.56,20.91-58.56,70.78s27.03,70.14,58.56,70.14c18.66,0,39.57-6.76,49.22-12.23,11.59-6.75,12.23,24.46,2.58,30.89-9.33,6.76-31.21,14.48-56.63,14.48-54.7,0-93.31-33.14-93.31-103.28s38.61-103.93,93.31-103.93Z"/>
    <path class="st0" d="M1072.72,1438.56h-58.56v162.17c0,12.87-40.54,12.87-40.54,0v-162.17h-45.36c-15.12,0-31.21-33.14-16.09-33.14h160.56c12.55,0,12.55,33.14,0,33.14Z"/>
    <path class="st0" d="M1090.74,1506.77c0-65.32,35.39-103.93,95.24-103.93s95.24,38.61,95.24,103.93-35.4,103.6-95.24,103.6-95.24-38.61-95.24-103.6ZM1241.64,1506.77c0-44.73-20.59-70.79-55.66-70.79s-55.66,26.06-55.66,70.79,20.27,70.46,55.66,70.46,55.66-26.06,55.66-70.46Z"/>
    <path class="st0" d="M1385.14,1490.36c30.56,5.79,65.64,12.87,65.64,59.2,0,41.18-33.79,60.81-73.68,60.81-20.59,0-42.79-5.47-62.74-15.44-11.9-5.47-13.83-41.19-.64-34.43,23.49,11.9,45.05,17.37,61.78,17.37,22.84,0,37.33-9.97,37.33-27.67,0-21.24-21.56-25.74-45.69-30.57-29.93-6.44-64.03-13.51-64.03-55.67s32.82-61.13,71.42-61.13c20.27,0,41.83,5.15,61.45,15.44,11.27,5.47,13.2,40.22.64,33.79-24.45-12.55-46.01-18.34-62.42-18.34-20.91,0-33.78,9.65-33.78,27.35,0,20.91,20.91,24.78,44.73,29.28Z"/>
    <path class="st0" d="M1608.74,1608.12h-121.3c-4.83,0-7.08-7.08-7.08-14.16v-175.03c0-7.08,2.57-13.51,7.08-13.51h124.2c15.12,0-1.29,33.14-16.41,33.14h-77.22v50.52h68.21c12.55,0,12.55,33.14,0,33.14h-68.53v52.77h91.06c12.87,0,12.87,33.14,0,33.14Z"/>
  </g>
  <g>
    <path class="st0" d="M790.06,1726.25h-76.9v50.52h67.25c12.87,0,12.87,33.14,0,33.14h-67.57v78.51c0,12.87-37.32,12.87-37.32,0v-181.79c0-7.08,2.57-13.51,7.08-13.51h123.55c15.12,0-.97,33.14-16.09,33.14Z"/>
    <path class="st0" d="M973.46,1895.81c-7.08,2.58-13.19,4.19-18.66,4.19-20.27,0-31.54-18.99-43.12-38.29-9.33-14.8-19.3-30.89-34.43-39.25v65.96c0,12.87-37.65,12.87-37.65,0v-180.5c0-8.04,21.23-17.05,64.35-17.05,54.38,0,86.23,23.17,86.23,65s-21.88,64.67-65,66.92c4.51,6.11,8.37,12.23,12.23,18.02,7.72,11.26,15.45,22.2,26.7,22.2,2.9,0,5.79-.64,9.01-1.93,12.54-4.82,12.54,30.24.32,34.75ZM877.26,1727.86v64.03c12.87,2.57,23.81,3.86,32.82,3.86,31.53,0,41.83-15.12,41.83-37,0-23.16-15.12-35.39-44.4-35.39-10.29,0-20.91,1.61-30.24,4.5Z"/>
    <path class="st0" d="M1148.17,1895.81h-121.3c-4.83,0-7.08-7.08-7.08-14.16v-175.03c0-7.08,2.57-13.51,7.08-13.51h124.19c15.12,0-1.29,33.14-16.41,33.14h-77.22v50.52h68.21c12.54,0,12.54,33.14,0,33.14h-68.54v52.77h91.06c12.87,0,12.87,33.14,0,33.14Z"/>
    <path class="st0" d="M1314.83,1895.81h-121.3c-4.83,0-7.08-7.08-7.08-14.16v-175.03c0-7.08,2.57-13.51,7.08-13.51h124.2c15.12,0-1.29,33.14-16.41,33.14h-77.22v50.52h68.21c12.54,0,12.54,33.14,0,33.14h-68.54v52.77h91.06c12.87,0,12.87,33.14,0,33.14Z"/>
  </g>
</svg>