<?xml version="1.0" encoding="UTF-8"?>
<svg xmlns="http://www.w3.org/2000/svg" version="1.1" viewBox="0 0 2000 2000">
  <!-- Generator: Adobe Illustrator 29.2.1, SVG Export Plug-In . SVG Version: 2.1.0 Build 116)  -->
  <defs>
    <style>
      .st0 {
        fill: #fff;
      }

      .st1 {
        fill: #006837;
      }
    </style>
  </defs>
  <g id="Layer_2">
    <rect class="st0" x="858.27" y="858.27" width="283.46" height="283.46"/>
  </g>
  <g id="Layer_1">
    <g>
      <g>
        <path class="st1" d="M1483.8,454.78c1.35-6.14-98.13,101.27-227.81,196.94-122.16,110.71-274.51,209.67-205.22,533.97,3.69.49,7.19.74,10.83,1.16,124.37-99.46,221.28-238.56,269.03-408.18-27.38,156.54-99.57,298.33-203.16,412.08,283.53-.16,355.95-236.66,376.2-408.21,18.07-200.32-25.05-323.95-19.88-327.75Z"/>
        <path class="st1" d="M744.01,651.72c-129.68-95.67-229.16-203.08-227.81-196.94,5.17,3.8-37.95,127.43-19.88,327.75,20.25,171.55,92.67,408.05,376.2,408.21-103.59-113.75-175.78-255.54-203.16-412.08,47.75,169.62,144.67,308.72,269.03,408.18,3.64-.42,7.13-.67,10.83-1.16,69.29-324.3-83.06-423.26-205.22-533.97Z"/>
      </g>
      <path class="st1" d="M1000,100c-496.28,0-900,403.71-900,900,0,89.23,13.11,175.63,37.29,257.14,111.09,371.31,455.66,642.86,862.71,642.86s751.63-271.54,862.71-642.86c24.17-81.52,37.29-167.92,37.29-257.14,0-496.29-403.71-900-900-900ZM246.57,1257.14c-27.77-80.74-42.68-167.14-42.68-257.14,0-438.94,357.17-796.12,796.11-796.12s796.12,357.17,796.12,796.12c0,90-14.92,176.4-42.69,257.14H246.57Z"/>
      <g>
        <path class="st0" d="M646.7,1627.61l-56.71-176.95h43.84l21.53,74.82c6.04,21,11.55,41.22,15.75,63.27h.79c4.47-21.26,9.98-42.27,16.01-62.48l22.58-75.61h42.53l-59.6,176.95h-46.73Z"/>
        <path class="st0" d="M877.23,1552.79h-65.11v42h72.72v32.82h-112.89v-176.95h109.21v32.82h-69.05v36.76h65.11v32.55Z"/>
        <path class="st0" d="M1059.98,1619.47c-12.34,4.2-35.71,9.98-59.07,9.98-32.29,0-55.66-8.14-71.93-23.89-16.28-15.23-25.2-38.33-24.94-64.32.26-58.81,43.05-92.41,101.08-92.41,22.84,0,40.42,4.46,49.1,8.67l-8.41,32.03c-9.71-4.2-21.79-7.61-41.22-7.61-33.34,0-58.54,18.9-58.54,57.23s22.84,58.02,55.66,58.02c9.19,0,16.54-1.05,19.69-2.63v-37.01h-27.3v-31.24h65.9v93.2Z"/>
        <path class="st0" d="M1132.48,1582.19l-12.61,45.42h-41.48l54.09-176.95h52.5l54.87,176.95h-43.05l-13.65-45.42h-50.67ZM1177.37,1552.27l-11.02-37.54c-3.15-10.5-6.3-23.63-8.93-34.13h-.52c-2.62,10.51-5.25,23.89-8.14,34.13l-10.5,37.54h39.12Z"/>
        <path class="st0" d="M1263.51,1627.61v-176.95h46.73l36.76,64.84c10.5,18.64,21,40.7,28.88,60.64h.79c-2.62-23.36-3.41-47.26-3.41-73.77v-51.72h36.76v176.95h-42.01l-37.8-68.26c-10.5-18.9-22.05-41.74-30.72-62.48l-.79.26c1.05,23.36,1.58,48.31,1.58,77.19v53.29h-36.76Z"/>
      </g>
    </g>
  </g>
</svg>