<?xml version="1.0" encoding="UTF-8"?>
<svg id="Layer_1" xmlns="http://www.w3.org/2000/svg" version="1.1" viewBox="0 0 2000 2000">
  <!-- Generator: Adobe Illustrator 29.2.1, SVG Export Plug-In . SVG Version: 2.1.0 Build 116)  -->
  <defs>
    <style>
      .st0 {
        fill: #3e9c3e;
      }
    </style>
  </defs>
  <path class="st0" d="M1599.35,1158.87c36.42-12.47,71.28-29.94,102.74-52.18,29.72-80.6,45.99-167.7,45.99-258.62,0-413.15-334.92-748.08-748.08-748.08S251.92,434.92,251.92,848.08s334.92,748.08,748.08,748.08c144.17,0,278.78-40.81,392.98-111.47,119.03-73.65,215.88-179.74,278.18-305.95-5.59,11.32-25.6,22.4-35.31,29.34-31.83,22.74-67.22,40.53-104.21,53.19-60.66,20.77-123.49,26.38-185.62,20.62-72.64-6.73-144.31-29.02-210.44-60.98-126.24-61.01-252.25-145.33-399.82-123.66-65.14,9.57-125.38,43.57-163.37,97.87-5.92,8.45-11.76,17.45-15.79,27,0,0,225.95,259.61,525.74,269.71-26.97,3.42-54.44,5.24-82.34,5.24-358.43,0-648.99-290.56-648.99-648.99S641.57,199.08,1000,199.08s648.99,290.56,648.99,648.99c0,116.84-30.92,226.44-84.96,321.13,11.84-2.9,23.62-6.33,35.32-10.34Z"/>
  <path class="st0" d="M905.53,429.6c-.32-6.78-6.17-12.04-13.06-11.52-6.44.49-11.19,6.3-11.19,12.75v278.83c0,6.82-5.52,12.34-12.34,12.34h-2.11c-6.82,0-12.34-5.52-12.34-12.34v-279.49c0-6.7-5.43-12.13-12.13-12.13h-3.18c-6.7,0-12.13,5.43-12.13,12.13v279.49c0,6.82-5.52,12.34-12.34,12.34s-12.34-5.52-12.34-12.34v-279.49c0-6.7-5.43-12.13-12.13-12.13h-3.18c-6.7,0-12.13,5.43-12.13,12.13v279.49c0,6.82-5.52,12.34-12.34,12.34h-2.11c-6.82,0-12.34-5.52-12.34-12.34v-278.83c0-6.46-4.75-12.27-11.19-12.75-6.89-.52-12.74,4.74-13.06,11.52l-15.27,320.13c-.85,17.75,7.51,34.68,22.11,44.81l39.69,27.53c10.62,7.37,16.83,19.58,16.53,32.5l-5.65,227.64c22.79-.15,45.08,2.03,66.98,6.03l-5.8-233.67c-.3-12.92,5.91-25.13,16.53-32.5l39.69-27.53c14.6-10.13,22.95-27.06,22.11-44.81l-15.27-320.13ZM1149.01,418.04c-78.66,0-142.43,132.88-142.43,248.43,0,87.88,36.89,140.4,89.16,160.52,15.39,5.92,25.67,20.52,25.28,37.01l-8.3,334.05c7.62,3.82,15.24,7.59,22.86,11.27,16.52,7.99,33.39,15.37,50.54,22.05l-9.13-367.38c-.38-16.49,9.9-31.09,25.29-37.01,52.27-20.12,89.16-72.64,89.16-160.52,0-115.55-63.77-248.43-142.43-248.43ZM1226.99,793.84v-293.3c25.27,47.45,40.88,108.8,40.88,165.93s-15.61,99.3-40.88,127.37Z"/>
  <g>
    <g>
      <path class="st0" d="M450.74,1808.13l-47.71-133.49h29.23l33.78,98.8,32.69-98.8h28.59l-47.81,133.49h-28.77Z"/>
      <path class="st0" d="M541.07,1808.13v-133.49h98.98v22.58h-72.03v29.59h67.02v22.49h-67.02v36.33h74.58v22.49h-101.53Z"/>
      <path class="st0" d="M727.55,1759.05v-22.49h58.09v53.18c-5.65,5.46-13.83,10.27-24.54,14.43-10.71,4.16-21.57,6.24-32.55,6.24-13.96,0-26.13-2.93-36.51-8.79-10.38-5.86-18.18-14.23-23.4-25.13-5.22-10.9-7.83-22.75-7.83-35.56,0-13.9,2.91-26.25,8.74-37.06,5.83-10.8,14.36-19.09,25.59-24.86,8.56-4.43,19.21-6.65,31.96-6.65,16.57,0,29.52,3.48,38.84,10.43,9.32,6.95,15.31,16.56,17.98,28.82l-26.77,5.01c-1.88-6.56-5.42-11.73-10.61-15.53-5.19-3.79-11.67-5.69-19.44-5.69-11.78,0-21.14,3.73-28.09,11.2-6.95,7.47-10.43,18.55-10.43,33.24,0,15.84,3.52,27.73,10.56,35.65,7.04,7.92,16.27,11.88,27.68,11.88,5.65,0,11.31-1.11,16.98-3.32,5.68-2.22,10.55-4.9,14.61-8.06v-16.94h-30.87Z"/>
      <path class="st0" d="M810.51,1808.13v-133.49h98.98v22.58h-72.03v29.59h67.02v22.49h-67.02v36.33h74.58v22.49h-101.53Z"/>
      <path class="st0" d="M964.94,1808.13v-110.91h-39.61v-22.58h106.08v22.58h-39.52v110.91h-26.95Z"/>
      <path class="st0" d="M1155.35,1808.13h-29.32l-11.66-30.32h-53.36l-11.02,30.32h-28.59l51.99-133.49h28.5l53.45,133.49ZM1105.72,1755.32l-18.39-49.54-18.03,49.54h36.42Z"/>
      <path class="st0" d="M1169.73,1808.13v-133.49h56.73c14.27,0,24.63,1.2,31.1,3.6,6.47,2.4,11.64,6.66,15.53,12.79,3.88,6.13,5.83,13.14,5.83,21.03,0,10.02-2.94,18.29-8.83,24.81-5.89,6.53-14.69,10.64-26.41,12.34,5.83,3.4,10.64,7.13,14.43,11.2,3.79,4.07,8.91,11.29,15.34,21.67l16.3,26.04h-32.23l-19.49-29.05c-6.92-10.38-11.66-16.92-14.21-19.62-2.55-2.7-5.25-4.55-8.1-5.55-2.85-1-7.38-1.5-13.57-1.5h-5.46v55.73h-26.95ZM1196.69,1731.1h19.94c12.93,0,21-.55,24.22-1.64,3.22-1.09,5.74-2.97,7.56-5.65,1.82-2.67,2.73-6.01,2.73-10.02,0-4.49-1.2-8.12-3.6-10.88-2.4-2.76-5.78-4.51-10.15-5.24-2.19-.3-8.74-.46-19.67-.46h-21.03v33.87Z"/>
      <path class="st0" d="M1303.5,1808.13v-133.49h26.95v133.49h-26.95Z"/>
      <path class="st0" d="M1476.51,1808.13h-29.32l-11.66-30.32h-53.36l-11.02,30.32h-28.59l51.99-133.49h28.5l53.45,133.49ZM1426.88,1755.32l-18.39-49.54-18.03,49.54h36.42Z"/>
      <path class="st0" d="M1491.08,1808.13v-133.49h26.22l54.63,89.15v-89.15h25.04v133.49h-27.04l-53.82-87.05v87.05h-25.04Z"/>
    </g>
    <g>
      <path class="st0" d="M684.91,1899.21v-41.12h-15.36v-5.5h36.95v5.5h-15.42v41.12h-6.17Z"/>
      <path class="st0" d="M721.03,1899.21l17.9-46.62h6.65l19.08,46.62h-7.03l-5.44-14.12h-19.49l-5.12,14.12h-6.55ZM734.48,1880.06h15.8l-4.87-12.91c-1.48-3.92-2.59-7.14-3.31-9.67-.59,2.99-1.43,5.96-2.51,8.9l-5.12,13.67Z"/>
      <path class="st0" d="M805.9,1880.92v-5.47l19.75-.03v17.3c-3.03,2.42-6.16,4.23-9.38,5.45-3.22,1.22-6.53,1.83-9.92,1.83-4.58,0-8.74-.98-12.48-2.94-3.74-1.96-6.57-4.8-8.47-8.51-1.91-3.71-2.86-7.85-2.86-12.43s.95-8.77,2.85-12.7c1.9-3.93,4.63-6.85,8.19-8.76,3.56-1.91,7.66-2.86,12.31-2.86,3.37,0,6.42.55,9.14,1.64,2.72,1.09,4.86,2.61,6.41,4.56,1.55,1.95,2.72,4.49,3.53,7.63l-5.56,1.53c-.7-2.37-1.57-4.24-2.61-5.6-1.04-1.36-2.52-2.44-4.45-3.26-1.93-.82-4.07-1.22-6.42-1.22-2.82,0-5.26.43-7.31,1.29-2.06.86-3.72,1.99-4.98,3.39-1.26,1.4-2.24,2.94-2.94,4.61-1.19,2.88-1.78,6.01-1.78,9.38,0,4.16.72,7.63,2.15,10.43s3.51,4.88,6.25,6.23c2.73,1.36,5.64,2.04,8.71,2.04,2.67,0,5.28-.51,7.82-1.54,2.54-1.03,4.47-2.13,5.79-3.29v-8.68h-13.71Z"/>
      <path class="st0" d="M852.58,1899.21v-46.62h6.17v41.12h22.96v5.5h-29.13Z"/>
      <path class="st0" d="M905.78,1899.21v-46.62h6.17v46.62h-6.17Z"/>
      <path class="st0" d="M940.85,1899.21v-46.62h6.33l24.48,36.6v-36.6h5.91v46.62h-6.33l-24.48-36.63v36.63h-5.91Z"/>
      <path class="st0" d="M1006.17,1899.21v-46.62h33.71v5.5h-27.54v14.28h25.79v5.47h-25.79v15.87h28.62v5.5h-34.79Z"/>
      <path class="st0" d="M1103.95,1899.21v-46.62h6.17v19.14h24.23v-19.14h6.17v46.62h-6.17v-21.97h-24.23v21.97h-6.17Z"/>
      <path class="st0" d="M1169.01,1899.21v-46.62h33.71v5.5h-27.54v14.28h25.79v5.47h-25.79v15.87h28.62v5.5h-34.79Z"/>
      <path class="st0" d="M1230.51,1899.21v-46.62h20.67c4.15,0,7.31.42,9.48,1.26,2.16.84,3.89,2.32,5.18,4.44,1.29,2.12,1.94,4.46,1.94,7.03,0,3.31-1.07,6.09-3.21,8.36-2.14,2.27-5.45,3.71-9.92,4.32,1.63.78,2.87,1.56,3.72,2.32,1.8,1.65,3.51,3.72,5.12,6.2l8.11,12.69h-7.76l-6.17-9.7c-1.8-2.8-3.29-4.94-4.45-6.42-1.17-1.48-2.21-2.52-3.13-3.12-.92-.59-1.86-1.01-2.81-1.24-.7-.15-1.84-.22-3.43-.22h-7.15v20.7h-6.17ZM1236.68,1873.16h13.26c2.82,0,5.02-.29,6.61-.87,1.59-.58,2.8-1.52,3.62-2.8.83-1.28,1.24-2.68,1.24-4.18,0-2.2-.8-4.02-2.4-5.44-1.6-1.42-4.13-2.13-7.58-2.13h-14.75v15.42Z"/>
      <path class="st0" d="M1295.66,1899.21v-46.62h33.71v5.5h-27.54v14.28h25.79v5.47h-25.79v15.87h28.62v5.5h-34.79Z"/>
    </g>
  </g>
</svg>